M48
;DRILL file {KiCad (2017-08-07 revision 2d9ab80b4)-master} date Thu Aug 10 02:18:49 2017
;FORMAT={-:-/ absolute / inch / decimal}
FMAT,2
INCH,TZ
T1C0.016
T2C0.020
T3C0.024
T4C0.030
T5C0.031
T6C0.034
T7C0.035
T8C0.039
T9C0.043
T10C0.045
T11C0.063
T12C0.118
%
G90
G05
M72
T1
X4.6304Y-2.9071
X4.6639Y-2.6413
X5.0408Y-4.2648
X5.17Y-4.42
X5.26Y-4.42
X5.3933Y-4.2671
X5.525Y-3.175
X5.525Y-3.275
X5.525Y-3.375
X5.525Y-3.475
X5.525Y-3.6
X5.525Y-3.7
X5.525Y-3.8
X5.525Y-3.9
X5.5257Y-4.0256
X5.6383Y-4.1386
X5.6494Y-3.5655
X5.6511Y-3.6246
X5.6557Y-2.9076
X5.7333Y-3.3105
X5.7624Y-3.3958
X5.78Y-3.73
X5.7974Y-4.2133
X5.825Y-4.175
X5.8328Y-4.2502
X5.8448Y-3.1912
X5.8624Y-4.2138
X5.9419Y-3.9622
X6.13Y-4.14
X6.1314Y-4.1856
X6.1518Y-4.2464
X6.172Y-4.2084
X6.3372Y-3.5206
X6.3801Y-3.6431
X6.4984Y-3.8604
X6.5071Y-3.9436
X6.5357Y-3.5998
X6.5672Y-3.5206
X6.5929Y-3.9473
X6.6932Y-3.5769
X6.7972Y-3.5206
X6.9097Y-3.9397
X6.9198Y-3.5616
X7.0217Y-3.7643
X7.0222Y-3.6862
X7.188Y-3.5383
X7.1913Y-3.7857
X7.2651Y-3.6882
X7.2683Y-3.792
X7.3725Y-3.522
X7.4615Y-4.0029
X7.4863Y-3.8084
X7.4863Y-3.7598
X7.4902Y-4.0933
X7.5347Y-4.0284
X7.5916Y-3.5211
X7.625Y-4.145
X7.7171Y-4.0986
X7.7243Y-3.5501
X7.8225Y-3.522
X7.9101Y-3.6789
X7.9163Y-3.5648
X7.9724Y-3.4646
X8.0433Y-4.1344
X8.1914Y-3.6829
X8.4075Y-3.336
X8.8799Y-3.336
X9.3523Y-3.336
X9.8248Y-3.336
T2
X9.0748Y-4.4291
X9.0748Y-4.4783
X9.3504Y-3.8681
X9.3504Y-3.9035
X9.3504Y-3.9508
X9.3504Y-3.9862
X9.3858Y-3.8681
X9.3858Y-3.9035
X9.3858Y-3.9508
X9.3858Y-3.9862
X9.5906Y-3.8681
X9.5906Y-3.9035
X9.5906Y-3.9508
X9.5906Y-3.9862
X9.626Y-3.8681
X9.626Y-3.9035
X9.626Y-3.9508
X9.626Y-3.9862
X9.8228Y-3.5335
X9.8228Y-3.5689
X9.8228Y-3.6161
X9.8228Y-3.6516
X9.8583Y-3.5335
X9.8583Y-3.5689
X9.8583Y-3.6161
X9.8583Y-3.6516
X10.063Y-3.5335
X10.063Y-3.5689
X10.063Y-3.6161
X10.063Y-3.6516
X10.0984Y-3.5335
X10.0984Y-3.5689
X10.0984Y-3.6161
X10.0984Y-3.6516
X10.0197Y-4.4291
X10.0197Y-4.4783
X8.4055Y-4.2028
X8.4055Y-4.2382
X8.4055Y-4.2854
X8.4055Y-4.3209
X8.4409Y-4.2028
X8.4409Y-4.2382
X8.4409Y-4.2854
X8.4409Y-4.3209
X8.6457Y-4.2028
X8.6457Y-4.2382
X8.6457Y-4.2854
X8.6457Y-4.3209
X8.6811Y-4.2028
X8.6811Y-4.2382
X8.6811Y-4.2854
X8.6811Y-4.3209
X8.878Y-3.5335
X8.878Y-3.5689
X8.878Y-3.6161
X8.878Y-3.6516
X8.9134Y-3.5335
X8.9134Y-3.5689
X8.9134Y-3.6161
X8.9134Y-3.6516
X9.1181Y-3.5335
X9.1181Y-3.5689
X9.1181Y-3.6161
X9.1181Y-3.6516
X9.1535Y-3.5335
X9.1535Y-3.5689
X9.1535Y-3.6161
X9.1535Y-3.6516
X9.3504Y-4.0354
X9.3504Y-4.0709
X9.3504Y-4.1181
X9.3504Y-4.1535
X9.3858Y-4.0354
X9.3858Y-4.0709
X9.3858Y-4.1181
X9.3858Y-4.1535
X9.5906Y-4.0354
X9.5906Y-4.0709
X9.5906Y-4.1181
X9.5906Y-4.1535
X9.626Y-4.0354
X9.626Y-4.0709
X9.626Y-4.1181
X9.626Y-4.1535
X9.3602Y-2.6772
X9.4094Y-2.6772
X9.8228Y-4.0354
X9.8228Y-4.0709
X9.8228Y-4.1181
X9.8228Y-4.1535
X9.8583Y-4.0354
X9.8583Y-4.0709
X9.8583Y-4.1181
X9.8583Y-4.1535
X10.063Y-4.0354
X10.063Y-4.0709
X10.063Y-4.1181
X10.063Y-4.1535
X10.0984Y-4.0354
X10.0984Y-4.0709
X10.0984Y-4.1181
X10.0984Y-4.1535
X8.878Y-3.7008
X8.878Y-3.7362
X8.878Y-3.7835
X8.878Y-3.8189
X8.9134Y-3.7008
X8.9134Y-3.7362
X8.9134Y-3.7835
X8.9134Y-3.8189
X9.1181Y-3.7008
X9.1181Y-3.7362
X9.1181Y-3.7835
X9.1181Y-3.8189
X9.1535Y-3.7008
X9.1535Y-3.7362
X9.1535Y-3.7835
X9.1535Y-3.8189
X9.8228Y-3.8681
X9.8228Y-3.9035
X9.8228Y-3.9508
X9.8228Y-3.9862
X9.8583Y-3.8681
X9.8583Y-3.9035
X9.8583Y-3.9508
X9.8583Y-3.9862
X10.063Y-3.8681
X10.063Y-3.9035
X10.063Y-3.9508
X10.063Y-3.9862
X10.0984Y-3.8681
X10.0984Y-3.9035
X10.0984Y-3.9508
X10.0984Y-3.9862
X9.8228Y-4.2028
X9.8228Y-4.2382
X9.8228Y-4.2854
X9.8228Y-4.3209
X9.8583Y-4.2028
X9.8583Y-4.2382
X9.8583Y-4.2854
X9.8583Y-4.3209
X10.063Y-4.2028
X10.063Y-4.2382
X10.063Y-4.2854
X10.063Y-4.3209
X10.0984Y-4.2028
X10.0984Y-4.2382
X10.0984Y-4.2854
X10.0984Y-4.3209
X8.878Y-3.8681
X8.878Y-3.9035
X8.878Y-3.9508
X8.878Y-3.9862
X8.9134Y-3.8681
X8.9134Y-3.9035
X8.9134Y-3.9508
X8.9134Y-3.9862
X9.1181Y-3.8681
X9.1181Y-3.9035
X9.1181Y-3.9508
X9.1181Y-3.9862
X9.1535Y-3.8681
X9.1535Y-3.9035
X9.1535Y-3.9508
X9.1535Y-3.9862
X8.878Y-4.2028
X8.878Y-4.2382
X8.878Y-4.2854
X8.878Y-4.3209
X8.9134Y-4.2028
X8.9134Y-4.2382
X8.9134Y-4.2854
X8.9134Y-4.3209
X9.1181Y-4.2028
X9.1181Y-4.2382
X9.1181Y-4.2854
X9.1181Y-4.3209
X9.1535Y-4.2028
X9.1535Y-4.2382
X9.1535Y-4.2854
X9.1535Y-4.3209
X9.3504Y-3.5335
X9.3504Y-3.5689
X9.3504Y-3.6161
X9.3504Y-3.6516
X9.3858Y-3.5335
X9.3858Y-3.5689
X9.3858Y-3.6161
X9.3858Y-3.6516
X9.5906Y-3.5335
X9.5906Y-3.5689
X9.5906Y-3.6161
X9.5906Y-3.6516
X9.626Y-3.5335
X9.626Y-3.5689
X9.626Y-3.6161
X9.626Y-3.6516
X8.4055Y-3.8681
X8.4055Y-3.9035
X8.4055Y-3.9508
X8.4055Y-3.9862
X8.4409Y-3.8681
X8.4409Y-3.9035
X8.4409Y-3.9508
X8.4409Y-3.9862
X8.6457Y-3.8681
X8.6457Y-3.9035
X8.6457Y-3.9508
X8.6457Y-3.9862
X8.6811Y-3.8681
X8.6811Y-3.9035
X8.6811Y-3.9508
X8.6811Y-3.9862
X9.3504Y-4.2028
X9.3504Y-4.2382
X9.3504Y-4.2854
X9.3504Y-4.3209
X9.3858Y-4.2028
X9.3858Y-4.2382
X9.3858Y-4.2854
X9.3858Y-4.3209
X9.5906Y-4.2028
X9.5906Y-4.2382
X9.5906Y-4.2854
X9.5906Y-4.3209
X9.626Y-4.2028
X9.626Y-4.2382
X9.626Y-4.2854
X9.626Y-4.3209
X9.3504Y-3.7008
X9.3504Y-3.7362
X9.3504Y-3.7835
X9.3504Y-3.8189
X9.3858Y-3.7008
X9.3858Y-3.7362
X9.3858Y-3.7835
X9.3858Y-3.8189
X9.5906Y-3.7008
X9.5906Y-3.7362
X9.5906Y-3.7835
X9.5906Y-3.8189
X9.626Y-3.7008
X9.626Y-3.7362
X9.626Y-3.7835
X9.626Y-3.8189
X9.5472Y-4.4291
X9.5472Y-4.4783
X9.6375Y-2.6772
X9.6868Y-2.6772
X8.8091Y-2.6772
X8.8583Y-2.6772
X8.4055Y-4.0354
X8.4055Y-4.0709
X8.4055Y-4.1181
X8.4055Y-4.1535
X8.4409Y-4.0354
X8.4409Y-4.0709
X8.4409Y-4.1181
X8.4409Y-4.1535
X8.6457Y-4.0354
X8.6457Y-4.0709
X8.6457Y-4.1181
X8.6457Y-4.1535
X8.6811Y-4.0354
X8.6811Y-4.0709
X8.6811Y-4.1181
X8.6811Y-4.1535
X8.4055Y-3.7008
X8.4055Y-3.7362
X8.4055Y-3.7835
X8.4055Y-3.8189
X8.4409Y-3.7008
X8.4409Y-3.7362
X8.4409Y-3.7835
X8.4409Y-3.8189
X8.6457Y-3.7008
X8.6457Y-3.7362
X8.6457Y-3.7835
X8.6457Y-3.8189
X8.6811Y-3.7008
X8.6811Y-3.7362
X8.6811Y-3.7835
X8.6811Y-3.8189
X8.5335Y-2.6772
X8.5827Y-2.6772
X8.4055Y-3.5335
X8.4055Y-3.5689
X8.4055Y-3.6161
X8.4055Y-3.6516
X8.4409Y-3.5335
X8.4409Y-3.5689
X8.4409Y-3.6161
X8.4409Y-3.6516
X8.6457Y-3.5335
X8.6457Y-3.5689
X8.6457Y-3.6161
X8.6457Y-3.6516
X8.6811Y-3.5335
X8.6811Y-3.5689
X8.6811Y-3.6161
X8.6811Y-3.6516
X9.8228Y-3.7008
X9.8228Y-3.7362
X9.8228Y-3.7835
X9.8228Y-3.8189
X9.8583Y-3.7008
X9.8583Y-3.7362
X9.8583Y-3.7835
X9.8583Y-3.8189
X10.063Y-3.7008
X10.063Y-3.7362
X10.063Y-3.7835
X10.063Y-3.8189
X10.0984Y-3.7008
X10.0984Y-3.7362
X10.0984Y-3.7835
X10.0984Y-3.8189
X9.9114Y-2.6772
X9.9606Y-2.6772
X8.878Y-4.0354
X8.878Y-4.0709
X8.878Y-4.1181
X8.878Y-4.1535
X8.9134Y-4.0354
X8.9134Y-4.0709
X8.9134Y-4.1181
X8.9134Y-4.1535
X9.1181Y-4.0354
X9.1181Y-4.0709
X9.1181Y-4.1181
X9.1181Y-4.1535
X9.1535Y-4.0354
X9.1535Y-4.0709
X9.1535Y-4.1181
X9.1535Y-4.1535
X8.6024Y-4.4291
X8.6024Y-4.4783
X9.0846Y-2.6772
X9.1339Y-2.6772
T3
X5.1026Y-2.6413
X5.2528Y-2.6413
X6.Y-3.525
X6.05Y-3.525
X6.05Y-3.725
X6.1472Y-2.9506
X6.39Y-4.22
X6.39Y-4.15
X6.76Y-4.15
X6.76Y-4.22
X6.9772Y-3.3106
X7.1333Y-3.1392
X7.1522Y-3.3106
X7.28Y-4.31
X7.9975Y-3.312
X8.1054Y-2.9225
X8.18Y-4.31
X8.8976Y-2.9331
X8.8976Y-3.0217
X9.6161Y-2.9331
X9.6161Y-3.0217
T4
X6.11Y-3.85
X6.17Y-3.85
X6.5822Y-2.9656
X7.5775Y-2.967
T5
X7.2275Y-2.867
X7.2275Y-3.367
X7.3275Y-2.867
X7.3275Y-3.367
X7.4275Y-2.867
X7.4275Y-3.367
X7.5275Y-2.867
X7.5275Y-3.367
X7.6275Y-2.867
X7.6275Y-3.367
X7.7275Y-2.867
X7.7275Y-3.367
X7.8275Y-2.867
X7.8275Y-3.367
X7.9275Y-2.867
X7.9275Y-3.367
X5.825Y-2.75
X5.825Y-2.8484
X6.2072Y-2.8656
X6.2072Y-3.3656
X6.3072Y-2.8656
X6.3072Y-3.3656
X6.4072Y-2.8656
X6.4072Y-3.3656
X6.5072Y-2.8656
X6.5072Y-3.3656
X6.6072Y-2.8656
X6.6072Y-3.3656
X6.7072Y-2.8656
X6.7072Y-3.3656
X6.8072Y-2.8656
X6.8072Y-3.3656
X6.9072Y-2.8656
X6.9072Y-3.3656
T6
X5.1616Y-4.66
X5.26Y-4.66
X5.3584Y-4.66
X7.4753Y-2.6774
X7.5737Y-2.6774
X7.6721Y-2.6774
X7.7706Y-2.6774
X6.4462Y-2.6772
X6.5446Y-2.6772
X6.643Y-2.6772
X6.7415Y-2.6772
X5.6716Y-4.66
X5.77Y-4.66
X5.8684Y-4.66
T7
X4.7777Y-3.2305
X4.7777Y-3.3305
X4.7777Y-3.4305
X4.7777Y-3.5305
X4.8777Y-3.2805
X4.8777Y-3.3805
X4.8777Y-3.4805
X4.8777Y-3.5805
X4.7777Y-3.9717
X4.7777Y-4.0717
X4.7777Y-4.1717
X4.7777Y-4.2717
X4.8777Y-4.0217
X4.8777Y-4.1217
X4.8777Y-4.2217
X4.8777Y-4.3217
T8
X8.0414Y-3.7981
X8.0414Y-3.8981
X8.0414Y-3.9981
X8.1414Y-3.7981
X8.1414Y-3.8981
X8.1414Y-3.9981
T9
X6.3857Y-4.5219
X6.3857Y-4.64
X6.5038Y-4.5219
X6.5038Y-4.64
X6.6219Y-4.5219
X6.6219Y-4.64
X6.74Y-4.5219
X6.74Y-4.64
X4.82Y-2.7819
X4.82Y-2.9
X4.9381Y-2.7819
X4.9381Y-2.9
T10
X5.5Y-2.74
X5.5Y-2.84
X5.5Y-2.94
T11
X4.636Y-3.0974
X4.636Y-3.7136
X4.636Y-3.8386
X4.636Y-4.4547
T12
X8.1299Y-2.7362
X4.5079Y-2.7362
X8.1299Y-4.626
X4.5079Y-4.626
T0
M30
