M48
;DRILL file {KiCad (2017-08-07 revision 2d9ab80b4)-master} date Thu Aug 10 02:18:49 2017
;FORMAT={-:-/ absolute / inch / decimal}
FMAT,2
INCH,TZ
T1C0.020
T2C0.043
T3C0.087
T4C0.098
T5C0.128
%
G90
G05
M72
T1
X9.2126Y-4.3602
X9.2126Y-4.3996
X9.2126Y-4.439
X9.2126Y-4.4783
X9.2126Y-4.5177
X9.8819Y-3.1102
X9.9213Y-3.1102
X9.9606Y-3.1102
X10.Y-3.1102
X10.0394Y-3.1102
X8.4646Y-3.1102
X8.5039Y-3.1102
X8.5433Y-3.1102
X8.5827Y-3.1102
X8.622Y-3.1102
X9.2913Y-4.3602
X9.2913Y-4.3996
X9.2913Y-4.439
X9.2913Y-4.4783
X9.2913Y-4.5177
X8.7402Y-4.3602
X8.7402Y-4.3996
X8.7402Y-4.439
X8.7402Y-4.4783
X8.7402Y-4.5177
X8.3465Y-2.7953
X8.3465Y-2.8346
X8.3465Y-2.874
X8.3465Y-2.9134
X8.3465Y-2.9528
X8.937Y-3.189
X8.9764Y-3.189
X9.0157Y-3.189
X9.0551Y-3.189
X9.0945Y-3.189
X9.4094Y-3.189
X9.4488Y-3.189
X9.4882Y-3.189
X9.5276Y-3.189
X9.5669Y-3.189
X8.2677Y-3.4055
X8.2677Y-3.4449
X8.2677Y-3.4843
X8.2677Y-3.5236
X8.2677Y-3.563
X9.4094Y-3.1102
X9.4488Y-3.1102
X9.4882Y-3.1102
X9.5276Y-3.1102
X9.5669Y-3.1102
X8.937Y-3.1102
X8.9764Y-3.1102
X9.0157Y-3.1102
X9.0551Y-3.1102
X9.0945Y-3.1102
X8.2677Y-4.3602
X8.2677Y-4.3996
X8.2677Y-4.439
X8.2677Y-4.4783
X8.2677Y-4.5177
X9.8819Y-3.189
X9.9213Y-3.189
X9.9606Y-3.189
X10.Y-3.189
X10.0394Y-3.189
X8.8189Y-4.3602
X8.8189Y-4.3996
X8.8189Y-4.439
X8.8189Y-4.4783
X8.8189Y-4.5177
X8.3465Y-4.3602
X8.3465Y-4.3996
X8.3465Y-4.439
X8.3465Y-4.4783
X8.3465Y-4.5177
X8.4646Y-3.189
X8.5039Y-3.189
X8.5433Y-3.189
X8.5827Y-3.189
X8.622Y-3.189
X8.2677Y-2.7953
X8.2677Y-2.8346
X8.2677Y-2.874
X8.2677Y-2.9134
X8.2677Y-2.9528
X9.7638Y-4.3602
X9.7638Y-4.3996
X9.7638Y-4.439
X9.7638Y-4.4783
X9.7638Y-4.5177
X9.685Y-4.3602
X9.685Y-4.3996
X9.685Y-4.439
X9.685Y-4.4783
X9.685Y-4.5177
X8.3465Y-3.4055
X8.3465Y-3.4449
X8.3465Y-3.4843
X8.3465Y-3.5236
X8.3465Y-3.563
T2
X6.2676Y-4.4825
X6.8581Y-4.4849
X4.9751Y-3.0181
X4.9775Y-2.6638
T3
X8.5433Y-4.6654
X9.4882Y-4.6654
X9.9606Y-4.6654
X9.9606Y-3.2874
X8.5433Y-3.2874
X9.0157Y-3.2874
X9.4882Y-3.2874
X9.0157Y-4.6654
T4
X9.8425Y-2.9429
X8.6614Y-2.9429
T5
X4.5277Y-3.1805
X4.5277Y-3.6305
X4.5277Y-3.9217
X4.5277Y-4.3717
T0
M30
