M48
;DRILL file {KiCad (2015-10-25 BZR 6278)-product} date Sa 14 Nov 2015 18:07:19 CET
;FORMAT={3:3/ absolute / metric / keep zeros}
FMAT,2
METRIC,TZ
T1C0.700
T2C0.800
T3C1.001
T4C1.500
T5C3.000
%
G90
G05
M71
T1
X002062Y-048895
X008128Y-048895
X019304Y-024558
X019304Y-022098
X020828Y-048260
X020828Y-045720
X025687Y-024605
X027542Y-021920
X029513Y-045720
X029702Y-029718
X029718Y-037084
X031078Y-048170
X031242Y-035306
X031242Y-021590
X033274Y-061468
X038939Y-060520
X039878Y-018542
X039878Y-012700
X042418Y-038100
X042418Y-029718
X044704Y-061722
X044704Y-057150
X044779Y-059330
X045974Y-036830
X053086Y-061722
X053213Y-059436
X053340Y-057150
X053340Y-016002
X053340Y-011176
X054610Y-036830
X055753Y-031750
X055753Y-026035
T2
X005588Y-054610
X005588Y-041910
X005588Y-030480
X005588Y-017780
X008128Y-054610
X008128Y-041910
X008128Y-030480
X008128Y-017780
X010668Y-054610
X010668Y-041910
X010668Y-030480
X010668Y-017780
X013208Y-054610
X013208Y-041910
X013208Y-030480
X013208Y-017780
X015748Y-054610
X015748Y-041910
X015748Y-030480
X015748Y-017780
X018288Y-054610
X018288Y-041910
X018288Y-030480
X018288Y-017780
X020828Y-054610
X020828Y-041910
X020828Y-030480
X020828Y-017780
X023368Y-054610
X023368Y-041910
X023368Y-030480
X023368Y-017780
X033528Y-035560
X033528Y-033020
X033528Y-030480
X033528Y-025400
X038608Y-035560
X038608Y-033020
X038608Y-030480
X038608Y-025400
X045593Y-046990
X045593Y-044450
X045593Y-041910
X047498Y-033655
X047498Y-028575
X047498Y-026035
X047498Y-023495
X052578Y-033655
X052578Y-028575
X052578Y-026035
X052578Y-023495
X053213Y-046990
X053213Y-044450
X053213Y-041910
X057023Y-046990
X057023Y-044450
X057023Y-041910
X058928Y-033655
X058928Y-028575
X058928Y-026035
X058928Y-023495
X064008Y-033655
X064008Y-028575
X064008Y-026035
X064008Y-023495
X064643Y-046990
X064643Y-044450
X064643Y-041910
X068834Y-046990
X068834Y-044450
X068834Y-041910
X069850Y-033782
X069850Y-028702
X069850Y-026162
X069850Y-023622
X074930Y-033782
X074930Y-028702
X074930Y-026162
X074930Y-023622
X076454Y-046990
X076454Y-044450
X076454Y-041910
T3
X031242Y-041656
X034798Y-050292
X034798Y-047752
X039116Y-055118
X039116Y-044958
X041402Y-041656
X043434Y-023368
X043434Y-013208
X043688Y-052070
X048768Y-015875
X048768Y-013335
X053848Y-052070
X056388Y-023495
X056388Y-013335
X057023Y-052070
X060198Y-015875
X060198Y-013335
X061468Y-056388
X067183Y-052070
X071628Y-056388
T4
X004148Y-064770
X004148Y-006350
X007648Y-064770
X007648Y-006350
X011148Y-064770
X011148Y-006350
X014648Y-064770
X014648Y-006350
X022408Y-064770
X022718Y-006350
X025908Y-064770
X026218Y-006350
X029408Y-064770
X029718Y-006350
X033218Y-006350
X035108Y-064770
X036718Y-006350
X038608Y-064770
X042108Y-064770
X048288Y-064770
X051788Y-064770
X051928Y-006350
X055428Y-006350
X058928Y-006350
X059068Y-064770
X062428Y-006350
X062568Y-064770
X065928Y-006350
X066068Y-064770
X069568Y-064770
X072418Y-006350
X073068Y-064770
X075918Y-006350
X076568Y-064770
T5
X004318Y-059055
X004318Y-012065
X076073Y-059055
X076073Y-012065
T0
M30
